<svg xmlns="http://www.w3.org/2000/svg" viewBox="0 0 104.88 130.39"><defs><style>.cls-1{fill:#73a04b;}.cls-2{fill:#bfbfbf;}</style></defs><title>Rakshe landing page alt</title><g id="Navbar"><path class="cls-1" d="M16.06,68.58a30.31,30.31,0,0,0,5,16.6H3.22A43,43,0,0,1,.47,70V27.17a.73.73,0,0,1,.4-.65l15.19-7.59Z"/><path class="cls-1" d="M71.93,10.48V29.83L52.66,20.19a.49.49,0,0,0-.44,0L22.56,35V15.68L52.12.9a.74.74,0,0,1,.65,0Z"/><path class="cls-2" d="M104.41,27.17V70a43.31,43.31,0,0,1-17.32,34.64L55,128.71a4.35,4.35,0,0,1-5.2,0l-32-24a43.17,43.17,0,0,1-11.53-13H26.75c.47.4.95.78,1.44,1.15l22.43,16.82a3,3,0,0,0,3.64,0L76.69,92.83A30.31,30.31,0,0,0,88.82,68.58v-30a.5.5,0,0,0-.28-.45L78.42,33.07V13.73L104,26.52A.71.71,0,0,1,104.41,27.17Z"/></g></svg>