<svg xmlns="http://www.w3.org/2000/svg" viewBox="0 0 722 140"><defs><style>.cls-1{fill:#73a04b;}.cls-2{fill:#bfbfbf;}</style></defs><title>Rakshe landing page alt</title><g id="Navbar"><path class="cls-1" d="M17.87,73.74a32.63,32.63,0,0,0,5.32,17.87H4A46.51,46.51,0,0,1,1.09,75.3V29.2a.78.78,0,0,1,.43-.7l16.35-8.17Z"/><path class="cls-1" d="M78,11.24V32.05L57.24,21.69a.51.51,0,0,0-.48,0l-31.91,16V16.83L56.65.93a.78.78,0,0,1,.7,0Z"/><path class="cls-2" d="M112.9,29.2V75.3a46.58,46.58,0,0,1-18.63,37.27L59.79,138.43a4.67,4.67,0,0,1-5.59,0L19.73,112.57a46.42,46.42,0,0,1-12.4-14h22c.49.42,1,.83,1.54,1.23L55,117.93a3.27,3.27,0,0,0,3.92,0l24.13-18.1a32.61,32.61,0,0,0,13-26.09V41.47a.54.54,0,0,0-.3-.49L85,35.55V14.74L112.48,28.5A.77.77,0,0,1,112.9,29.2Z"/><path class="cls-2" d="M234,115.51,209.42,73.6H190.05v41.91h-6.36V24.35h26A53.77,53.77,0,0,1,222,25.66a26.06,26.06,0,0,1,9.47,4.22,19.36,19.36,0,0,1,6.09,7.47,25.93,25.93,0,0,1,2.14,11.07q0,10.94-6.29,17.08t-17.09,7.68l25.18,42.33ZM208,68.34q12.17,0,18.67-4.91t6.5-15q0-10.23-6.5-14.46T208,29.75h-18V68.34Z"/><path class="cls-2" d="M323.12,84.25H287l-10.79,31.26h-6.36L302,24.35h6.36l32.1,91.16h-6.78Zm-1.79-5.4-5.81-17q-2.77-8.16-5.26-15.63T305.42,30.3h-.56q-2.36,8.44-4.84,15.91t-5.25,15.63l-5.81,17Z"/><path class="cls-2" d="M375.69,24.35h6.5V75h.28l44.95-50.63h7.47L405.43,58.1l33.34,57.41h-7.33L401,62.94,382.19,84.11v31.4h-6.5Z"/><path class="cls-2" d="M470.58,99.05A39.14,39.14,0,0,0,483,108a36.89,36.89,0,0,0,15.63,3.32q11.2,0,17.64-5a17.3,17.3,0,0,0,5-20.4,16.64,16.64,0,0,0-3.87-5,25.31,25.31,0,0,0-5.68-3.74c-2.16-1.06-4.45-2.09-6.84-3.11l-13.84-6.22a69.24,69.24,0,0,1-6.64-3.05,28.75,28.75,0,0,1-6.36-4.49,23.59,23.59,0,0,1-4.84-6.37,18.57,18.57,0,0,1-1.94-8.78A19.74,19.74,0,0,1,473.35,36,21.34,21.34,0,0,1,479.16,29,28,28,0,0,1,488,24.35a35.57,35.57,0,0,1,11.07-1.66,36,36,0,0,1,15.56,3.25,40.16,40.16,0,0,1,11.27,7.68l-3.73,4.29a33.13,33.13,0,0,0-10-6.85,31.76,31.76,0,0,0-13.07-2.56q-9.69,0-15.56,4.43a14.09,14.09,0,0,0-5.88,11.89,12.91,12.91,0,0,0,1.66,6.78,17,17,0,0,0,4.22,4.77,30.43,30.43,0,0,0,5.53,3.46q3,1.45,5.74,2.56l13.69,6.09a68.16,68.16,0,0,1,7.89,3.73,31,31,0,0,1,6.57,4.84,20.76,20.76,0,0,1,4.5,6.57,22.7,22.7,0,0,1,1.66,9.07,22.37,22.37,0,0,1-2.15,9.75,22.09,22.09,0,0,1-6.15,7.74,30.23,30.23,0,0,1-9.62,5.12,39.29,39.29,0,0,1-12.52,1.87,42.83,42.83,0,0,1-18.53-3.8,44.79,44.79,0,0,1-13.7-9.89Z"/><path class="cls-2" d="M564.37,24.35h6.36v40h45.65v-40h6.36v91.16h-6.36V69.86H570.73v45.65h-6.36Z"/><path class="cls-2" d="M665.76,24.35h54v5.53H672.13V64.33h40.11v5.53H672.13V110h49v5.53H665.76Z"/></g></svg>